<svg version="1.1" id="header_svg" xmlns="http://www.w3.org/2000/svg" xmlns:xlink="http://www.w3.org/1999/xlink" x="0px" y="0px"
	 viewBox="0 0 430 177" enable-background="new 0 0 430 177" xml:space="preserve">
		<path fill="#B0D235" d="M156.7,121.6c-0.3,0.4-0.6,0.8-1,1.1c-0.4,0.4-0.8,0.7-1.4,0.9c-0.5,0.3-1.1,0.5-1.6,0.6
			c-0.6,0.1-1.2,0.2-1.9,0.2c-1.2,0-2.3-0.2-3.3-0.6c-1-0.4-1.9-1-2.6-1.7c-0.7-0.7-1.3-1.6-1.7-2.6c-0.4-1-0.6-2.1-0.6-3.3
			c0-1.2,0.2-2.3,0.6-3.3c0.4-1,1-1.9,1.7-2.6c0.7-0.7,1.6-1.3,2.6-1.7c1-0.4,2.1-0.6,3.3-0.6c1,0,2,0.2,2.9,0.6c1,0.4,1.8,1,2.5,1.9
			l-1.4,1c-0.2-0.3-0.4-0.5-0.7-0.8c-0.3-0.3-0.6-0.5-1-0.7c-0.4-0.2-0.8-0.3-1.2-0.5c-0.4-0.1-0.8-0.2-1.3-0.2c-1,0-1.9,0.2-2.7,0.6
			c-0.8,0.4-1.5,0.9-2,1.5c-0.6,0.6-1,1.4-1.3,2.2c-0.3,0.8-0.4,1.7-0.4,2.6s0.1,1.8,0.4,2.6c0.3,0.8,0.7,1.6,1.3,2.2
			c0.6,0.6,1.2,1.1,2,1.5c0.8,0.4,1.7,0.6,2.7,0.6c0.4,0,0.8,0,1.2-0.1c0.4-0.1,0.8-0.2,1.2-0.4c0.4-0.2,0.8-0.4,1.1-0.7
			c0.3-0.3,0.7-0.7,1-1.1L156.7,121.6z"/>
		<path fill="#B0D235" d="M165.4,124.1h-1.6v-15.8h4.9c1.6,0,2.9,0.4,3.8,1c0.9,0.7,1.4,1.8,1.4,3.2c0,1.1-0.3,2-1,2.8
			c-0.7,0.8-1.7,1.2-3,1.3l4.6,7.5h-2l-4.3-7.3h-2.7V124.1z M165.4,115.3h2.9c0.7,0,1.3-0.1,1.8-0.2c0.5-0.1,0.9-0.3,1.2-0.6
			c0.3-0.2,0.5-0.5,0.6-0.9c0.1-0.3,0.2-0.7,0.2-1.1c0-0.4-0.1-0.7-0.2-1.1c-0.1-0.3-0.4-0.6-0.6-0.9c-0.3-0.3-0.7-0.4-1.2-0.6
			c-0.5-0.1-1.1-0.2-1.8-0.2h-2.9V115.3z"/>
		<path fill="#B0D235" d="M183.1,122.6h8.5v1.5h-10.1v-15.8h9.8v1.5h-8.2v5.4h7.7v1.5h-7.7V122.6z"/>
		<path fill="#B0D235" d="M199,124.1h-1.9l6.9-15.8h1.6l6.9,15.8h-1.9l-1.7-4.2h-8.1L199,124.1z M201.3,118.5h6.9l-3.4-8.3
			L201.3,118.5z"/>
		<path fill="#B0D235" d="M222.6,124.1H221v-14.3h-5.3v-1.5h12.2v1.5h-5.3V124.1z"/>
		<path fill="#B0D235" d="M236.4,124.1h-1.6v-15.8h1.6V124.1z"/>
		<path fill="#B0D235" d="M249.7,121.7L249.7,121.7l5.2-13.4h1.7l-6.2,15.8h-1.6l-6-15.8h1.8L249.7,121.7z"/>
		<path fill="#B0D235" d="M264.9,122.6h8.5v1.5h-10.1v-15.8h9.8v1.5h-8.2v5.4h7.7v1.5h-7.7V122.6z"/>
		<path fill="#6DCFF6" d="M317.6,121.6c-0.3,0.4-0.6,0.8-1,1.1c-0.4,0.4-0.8,0.7-1.4,0.9c-0.5,0.3-1.1,0.5-1.6,0.6
			c-0.6,0.1-1.2,0.2-1.9,0.2c-1.2,0-2.3-0.2-3.3-0.6c-1-0.4-1.9-1-2.6-1.7c-0.7-0.7-1.3-1.6-1.7-2.6c-0.4-1-0.6-2.1-0.6-3.3
			c0-1.2,0.2-2.3,0.6-3.3c0.4-1,1-1.9,1.7-2.6c0.7-0.7,1.6-1.3,2.6-1.7s2.1-0.6,3.3-0.6c1,0,2,0.2,2.9,0.6c1,0.4,1.8,1,2.5,1.9l-1.4,1
			c-0.2-0.3-0.4-0.5-0.7-0.8c-0.3-0.3-0.6-0.5-1-0.7c-0.4-0.2-0.8-0.3-1.2-0.5s-0.8-0.2-1.3-0.2c-1,0-1.9,0.2-2.7,0.6
			c-0.8,0.4-1.5,0.9-2,1.5c-0.6,0.6-1,1.4-1.3,2.2c-0.3,0.8-0.4,1.7-0.4,2.6s0.1,1.8,0.4,2.6c0.3,0.8,0.7,1.6,1.3,2.2
			c0.6,0.6,1.2,1.1,2,1.5c0.8,0.4,1.7,0.6,2.7,0.6c0.4,0,0.8,0,1.2-0.1c0.4-0.1,0.8-0.2,1.2-0.4c0.4-0.2,0.8-0.4,1.1-0.7
			c0.3-0.3,0.7-0.7,1-1.1L317.6,121.6z"/>
		<path fill="#6DCFF6" d="M346,116.2c0,1.2-0.2,2.3-0.6,3.3c-0.4,1-1,1.9-1.7,2.6c-0.7,0.7-1.6,1.3-2.6,1.7c-1,0.4-2.1,0.6-3.3,0.6
			c-1.2,0-2.3-0.2-3.3-0.6c-1-0.4-1.9-1-2.6-1.7c-0.7-0.7-1.3-1.6-1.7-2.6c-0.4-1-0.6-2.1-0.6-3.3c0-1.2,0.2-2.3,0.6-3.3
			c0.4-1,1-1.9,1.7-2.6c0.7-0.7,1.6-1.3,2.6-1.7s2.1-0.6,3.3-0.6c1.2,0,2.3,0.2,3.3,0.6c1,0.4,1.9,1,2.6,1.7c0.7,0.7,1.3,1.6,1.7,2.6
			C345.7,113.9,346,115,346,116.2z M344.2,116.2c0-0.9-0.1-1.8-0.4-2.6c-0.3-0.8-0.7-1.6-1.3-2.2c-0.6-0.6-1.2-1.1-2-1.5
			c-0.8-0.4-1.7-0.6-2.7-0.6c-1,0-1.9,0.2-2.7,0.6c-0.8,0.4-1.5,0.9-2,1.5c-0.6,0.6-1,1.4-1.3,2.2c-0.3,0.8-0.4,1.7-0.4,2.6
			s0.1,1.8,0.4,2.6c0.3,0.8,0.7,1.6,1.3,2.2c0.6,0.6,1.2,1.1,2,1.5c0.8,0.4,1.7,0.6,2.7,0.6c1,0,1.9-0.2,2.7-0.6s1.5-0.9,2-1.5
			c0.6-0.6,1-1.4,1.3-2.2C344.1,118,344.2,117.1,344.2,116.2z"/>
		<path fill="#6DCFF6" d="M359.2,108.3h5.2c1,0,2,0.2,3,0.5c1,0.3,1.9,0.8,2.7,1.5c0.8,0.7,1.4,1.5,1.9,2.5c0.5,1,0.7,2.1,0.7,3.4
			c0,1.3-0.2,2.5-0.7,3.5c-0.5,1-1.1,1.8-1.9,2.5c-0.8,0.7-1.7,1.2-2.7,1.5c-1,0.3-2,0.5-3,0.5h-5.2V108.3z M360.8,122.6h3.1
			c1.2,0,2.3-0.2,3.1-0.5c0.9-0.4,1.6-0.8,2.2-1.5s1-1.3,1.3-2.1c0.3-0.8,0.4-1.6,0.4-2.4s-0.1-1.6-0.4-2.4c-0.3-0.8-0.7-1.5-1.3-2.1
			c-0.6-0.6-1.3-1.1-2.2-1.5c-0.9-0.4-1.9-0.5-3.1-0.5h-3.1V122.6z"/>
		<path fill="#6DCFF6" d="M387.9,122.6h8.5v1.5h-10.1v-15.8h9.8v1.5h-8.2v5.4h7.7v1.5h-7.7V122.6z"/>
		<path fill="#6DCFF6" d="M411.4,124.1h-1.6v-15.8h4.9c1.6,0,2.9,0.4,3.8,1c0.9,0.7,1.4,1.8,1.4,3.2c0,1.1-0.3,2-1,2.8
			c-0.7,0.8-1.7,1.2-3,1.3l4.6,7.5h-2l-4.3-7.3h-2.7V124.1z M411.4,115.3h2.9c0.7,0,1.3-0.1,1.8-0.2c0.5-0.1,0.9-0.3,1.2-0.6
			c0.3-0.2,0.5-0.5,0.6-0.9c0.1-0.3,0.2-0.7,0.2-1.1c0-0.4-0.1-0.7-0.2-1.1c-0.1-0.3-0.4-0.6-0.6-0.9c-0.3-0.3-0.7-0.4-1.2-0.6
			s-1.1-0.2-1.8-0.2h-2.9V115.3z"/>
		<polygon fill="#808285" points="288.2,108.6 286.1,116.3 290.3,116.3 288.2,123.8 292.9,114.3 289.5,114.3 291.5,108.6 "/>
		<path fill="#808285" d="M158.5,63.8c-1.3-1.9-3.2-2.8-5.7-2.8c-0.8,0-1.5,0.1-2.3,0.3c-0.7,0.2-1.4,0.5-2,0.9
			c-0.6,0.4-1.1,1-1.4,1.7c-0.4,0.7-0.5,1.5-0.5,2.4c0,1.3,0.4,2.3,1.1,3.1c0.7,0.7,1.7,1.3,2.8,1.8c1.1,0.5,2.3,0.9,3.6,1.3
			c1.3,0.4,2.5,0.9,3.6,1.5c1.1,0.6,2,1.4,2.8,2.5c0.7,1,1.1,2.4,1.1,4.2c0,1.3-0.3,2.5-0.8,3.6c-0.6,1.1-1.3,1.9-2.2,2.7
			c-0.9,0.7-2,1.3-3.1,1.7c-1.1,0.4-2.3,0.6-3.4,0.6c-1.8,0-3.5-0.3-5.1-1c-1.6-0.7-3-1.8-4.1-3.3l2.7-1.9c0.6,1.1,1.5,1.9,2.6,2.6
			c1.1,0.6,2.5,1,4,1c0.7,0,1.5-0.1,2.2-0.4c0.7-0.2,1.4-0.6,2-1c0.6-0.5,1.1-1,1.5-1.7c0.4-0.7,0.6-1.4,0.6-2.3c0-1-0.2-1.9-0.6-2.5
			c-0.4-0.7-1-1.2-1.7-1.7c-0.7-0.5-1.5-0.8-2.4-1.1c-0.9-0.3-1.8-0.6-2.8-0.9c-0.9-0.3-1.9-0.6-2.8-1c-0.9-0.4-1.7-0.9-2.4-1.5
			s-1.3-1.3-1.7-2.2c-0.4-0.9-0.6-2-0.6-3.4c0-1.4,0.3-2.6,0.8-3.7c0.5-1,1.3-1.9,2.1-2.6c0.9-0.7,1.9-1.2,3-1.5
			c1.1-0.3,2.3-0.5,3.5-0.5c1.7,0,3.2,0.3,4.5,0.8c1.3,0.5,2.6,1.4,3.8,2.8L158.5,63.8z"/>
		<path fill="#808285" d="M185.3,88.2h-3V61.7h-9.8V59h22.5v2.7h-9.8V88.2z"/>
		<path fill="#808285" d="M210.9,85.5h15.6v2.7h-18.6V59H226v2.7h-15.2v9.9H225v2.7h-14.2V85.5z"/>
		<path fill="#808285" d="M249.1,83.8L249.1,83.8l9.7-24.8h3.2l-11.4,29.2h-3L236.5,59h3.3L249.1,83.8z"/>
		<path fill="#808285" d="M277.1,85.5h15.6v2.7h-18.6V59h18.1v2.7h-15.2v9.9h14.2v2.7h-14.2V85.5z"/>
		<path fill="#808285" d="M329.5,85.5h13.6v2.7h-16.6V59h3V85.5z"/>
		<path fill="#808285" d="M376.3,77.3c0,1.2-0.1,2.5-0.4,3.9s-0.8,2.6-1.6,3.8s-1.9,2.1-3.3,2.9c-1.4,0.8-3.2,1.1-5.3,1.1
			c-2.2,0-4-0.4-5.4-1.1c-1.4-0.8-2.5-1.7-3.3-2.9c-0.8-1.2-1.3-2.4-1.6-3.8s-0.4-2.6-0.4-3.9V59h3v18c0,1.4,0.1,2.6,0.4,3.6
			c0.3,1,0.6,1.9,1.1,2.5c0.5,0.7,1,1.2,1.5,1.6c0.6,0.4,1.1,0.7,1.7,0.9c0.6,0.2,1.1,0.4,1.6,0.4c0.5,0.1,1,0.1,1.4,0.1
			c0.4,0,0.8,0,1.3-0.1c0.5-0.1,1.1-0.2,1.7-0.4c0.6-0.2,1.1-0.5,1.7-0.9c0.6-0.4,1.1-0.9,1.5-1.6c0.5-0.7,0.8-1.5,1.1-2.5
			c0.3-1,0.4-2.2,0.4-3.6V59h3V77.3z"/>
		<path fill="#808285" d="M401.1,70.7l8.2-11.7h3.7l-9.9,13.9l10.7,15.4h-3.9L401,75l-9,13.3h-3.7L399,72.9L389.1,59h4L401.1,70.7z"/>
		<path d="M55.4,57.8h2.5v1.4h-4.1v-6h1.6V57.8z"/>
		<path d="M66.8,53.2v4c0,1.6-0.7,2-2.5,2c-2.4,0-2.6-0.6-2.6-2v-4h1.6v3.9c0,0.7,0.4,0.7,1,0.7c0.7,0,0.9-0.1,0.9-0.8v-3.9H66.8z"/>
		<path d="M74.6,56.1l1.8,3.1h-1.8l-1.2-2.3l-1.2,2.3h-1.9l1.8-3.1l-1.7-2.9h1.9l1.1,2.2l1.1-2.2h1.8L74.6,56.1z"/>
		<path fill="#D1D3D4" d="M43,55.4c1.9,0,2.1-1,2.1-2c0-0.7-0.1-1.5-0.2-2.2c-0.1-0.7-0.2-1.5-0.2-2.2c0-2.4,1.6-3.5,3.8-3.5h0.6V47
			h-0.5c-1.6,0-2.1,0.8-2.1,2.3c0,0.6,0.1,1.2,0.2,1.9c0.1,0.7,0.2,1.3,0.2,2c0,1.7-0.7,2.5-1.9,2.9v0.1c1.2,0.3,1.9,1.2,1.9,2.9
			c0,0.7-0.1,1.4-0.2,2c-0.1,0.7-0.2,1.3-0.2,1.9c0,1.5,0.6,2.3,2.1,2.3h0.5v1.5h-0.6c-2.2,0-3.8-1-3.8-3.6c0-0.7,0.1-1.5,0.2-2.2
			c0.1-0.7,0.2-1.4,0.2-2.1c0-0.8-0.3-2-2.1-2V55.4z"/>
		<path fill="#D1D3D4" d="M86.3,56.8c-1.9,0-2.1,1.1-2.1,2c0,0.7,0.1,1.4,0.2,2.1c0.1,0.7,0.2,1.5,0.2,2.2c0,2.7-1.7,3.6-3.8,3.6h-0.6
			v-1.5h0.5c1.5,0,2.1-0.8,2.1-2.3c0-0.6-0.1-1.2-0.2-1.9c-0.1-0.6-0.2-1.3-0.2-2c0-1.7,0.7-2.6,1.9-2.9V56c-1.2-0.3-1.9-1.2-1.9-2.9
			c0-0.7,0.1-1.3,0.2-2c0.1-0.6,0.2-1.3,0.2-1.9c0-1.4-0.6-2.2-2.1-2.3h-0.5v-1.5h0.5c2.2,0,3.9,1,3.9,3.5c0,0.7-0.1,1.5-0.2,2.2
			c-0.1,0.7-0.2,1.5-0.2,2.2c0,0.9,0.3,2,2.1,2V56.8z"/>
		<path fill="#D1D3D4" d="M57.6,88.2c0.8-2.9,1-6.3-0.5-10.4c-1.5-4.1-3.8-6.6-6.2-8.3l1.6-0.6c2.1,1.4,4.7,3.8,6.3,8.3
			c1.6,4.5,1.1,8,0.3,10.5L57.6,88.2z"/>
		<path fill="#D1D3D4" d="M70.4,87.7c-0.8-2.5-1.3-5.9,0.3-10.5c1.6-4.5,4.2-6.9,6.3-8.3l1.6,0.6c-2.5,1.7-4.8,4.2-6.2,8.3
			c-1.5,4.1-1.3,7.6-0.5,10.4L70.4,87.7z"/>
		<path fill="#D1D3D4" d="M68.4,4.9V4.8l-7.5,0v0.1C33.3,6.8,11.3,30,11.3,58.1c0,10.8,3.2,21.2,9.3,30.1c0.1,0.1,1.2,1.7,1.9,2.6
			c1.6,2.2,3.7,4.4,6.2,6.9c8.5,8.8,21.4,22.1,21.4,47.7v3.7h0.1c0,0,0,0.1,0,0.1v1c0,1.8,1.4,3.2,3.2,3.2c-1.8,0-3.2,1.4-3.2,3.2v1
			c0,1.8,1.4,3.2,3.2,3.2c-1.8,0-3.2,1.4-3.2,3.2v1c0,1.8,1.4,3.2,3.2,3.2h4.8c-0.2,0.7,0.3,1.6,1.2,2.3v0c1.2,0.9,3,1.4,4.4,1.4h2.8
			c1.4,0,3.2-0.5,4.4-1.4v0c0.9-0.7,1.4-1.6,1.2-2.3h3.8c1.8,0,3.2-1.4,3.2-3.2v-1c0-1.8-1.4-3.2-3.2-3.2c1.8,0,3.2-1.4,3.2-3.2v-1
			c0-1.8-1.4-3.2-3.2-3.2c1.8,0,3.2-1.4,3.2-3.2v-1c0-0.4-0.1-0.8-0.2-1.1v-2.7c0-25.6,12.9-38.9,21.4-47.7c2.5-2.6,4.6-4.8,6.2-6.9
			c0.7-0.9,1.9-2.6,2-2.7c6.1-8.9,9.3-19.3,9.3-30C118,30,96.1,6.8,68.4,4.9z M102.6,83.9c-0.3,0.5-1.3,1.8-1.8,2.4l-0.1,0.1
			c-1.2,1.7-3.2,3.8-5.5,6.1c-8.9,9.2-22.3,23-23.4,49.1H57.5c-1.2-26.1-14.5-39.9-23.4-49.1c-2.3-2.4-4.3-4.4-5.5-6.1l-0.1-0.1
			c-0.5-0.6-1.5-2-1.7-2.4c-5.2-7.6-8-16.6-8-25.9c0-25.3,20.6-45.9,45.9-45.9h0.1c25.3,0,45.9,20.7,45.9,45.9
			C110.6,67.4,107.8,76.3,102.6,83.9z"/>
		<rect x="57.4" y="90.8" fill="#D1D3D4" width="1.7" height="57.1"/>
		<rect x="70.3" y="90.8" fill="#D1D3D4" width="1.7" height="57.1"/>
		</svg>