<?xml version="1.0" encoding="utf-8"?>
<!-- Generator: Adobe Illustrator 26.5.3, SVG Export Plug-In . SVG Version: 6.00 Build 0)  -->
<svg version="1.1" id="Layer_1" xmlns="http://www.w3.org/2000/svg" xmlns:xlink="http://www.w3.org/1999/xlink" x="0px" y="0px"
	 viewBox="0 0 31.9 32" style="enable-background:new 0 0 31.9 32;" xml:space="preserve">
<style type="text/css">
	.st0{fill:#FFFFFF;}
</style>
<g>
	<path class="st0" d="M2.8,19h4.8v2.5H0V10.4h3V19H2.8z"/>
	<path class="st0" d="M19,10.4v7.3c0,3-1.3,3.8-4.6,3.8c-4.6,0-4.8-1-4.8-3.8v-7.3h3v7.3c0,1.3,0.8,1.3,1.8,1.3
		c1.3,0,1.8-0.3,1.8-1.5v-7.1H19L19,10.4z"/>
	<path class="st0" d="M28.6,15.7l3.3,5.8h-3.3l-2.3-4.3l-2.3,4.3h-3.5l3.3-5.8l-3.3-5.3h3.5l2,4.1l2-4.1h3.3L28.6,15.7z"/>
</g>
</svg>
