<?xml version="1.0" encoding="utf-8"?>
<!-- Generator: Adobe Illustrator 26.5.3, SVG Export Plug-In . SVG Version: 6.00 Build 0)  -->
<svg version="1.1" id="Layer_1" xmlns="http://www.w3.org/2000/svg" xmlns:xlink="http://www.w3.org/1999/xlink" x="0px" y="0px"
	 viewBox="0 0 940 150" style="enable-background:new 0 0 940 150;" xml:space="preserve">
<style type="text/css">
	.st0{fill:#FFFFFF;}
</style>
<g>
	<g>
		<path class="st0" d="M81.7,46.7c-4.2-6.1-10.3-9-18.4-9c-2.6,0-4.8,0.3-7.4,1c-2.3,0.6-4.5,1.6-6.5,2.9c-1.9,1.3-3.6,3.2-4.5,5.5
			c-1.3,2.3-1.6,4.8-1.6,7.7c0,4.2,1.3,7.4,3.6,10c2.3,2.3,5.5,4.2,9,5.8c3.6,1.6,7.4,2.9,11.6,4.2c4.2,1.3,8.1,2.9,11.6,4.8
			c3.6,1.9,6.5,4.5,9,8.1c2.3,3.2,3.6,7.7,3.6,13.6c0,4.2-1,8.1-2.6,11.6c-1.9,3.6-4.2,6.1-7.1,8.7c-2.9,2.3-6.5,4.2-10,5.5
			c-3.6,1.3-7.4,1.9-11,1.9c-5.8,0-11.3-1-16.5-3.2s-9.7-5.8-13.2-10.7l8.7-6.1c1.9,3.6,4.8,6.1,8.4,8.4c3.6,1.9,8.1,3.2,12.9,3.2
			c2.3,0,4.8-0.3,7.1-1.3c2.3-0.6,4.5-1.9,6.5-3.2c1.9-1.6,3.6-3.2,4.8-5.5c1.3-2.3,1.9-4.5,1.9-7.4c0-3.2-0.6-6.1-1.9-8.1
			c-1.3-2.3-3.2-3.9-5.5-5.5c-2.3-1.6-4.8-2.6-7.7-3.6c-2.9-1-5.8-1.9-9-2.9c-2.9-1-6.1-1.9-9-3.2c-2.9-1.3-5.5-2.9-7.7-4.8
			s-4.2-4.2-5.5-7.1c-1.3-2.9-1.9-6.5-1.9-11s1-8.4,2.6-11.9c1.6-3.2,4.2-6.1,6.8-8.4c2.9-2.3,6.1-3.9,9.7-4.8
			c3.6-1,7.4-1.6,11.3-1.6c5.5,0,10.3,1,14.5,2.6c4.2,1.6,8.4,4.5,12.3,9L81.7,46.7z"/>
	</g>
	<g>
		<polygon class="st0" points="168.2,125.5 158.5,125.5 158.5,39.9 126.9,39.9 126.9,31.2 199.5,31.2 199.5,39.9 167.9,39.9 
			167.9,125.5 		"/>
	</g>
	<g>
		<polygon class="st0" points="250.9,116.8 301.2,116.8 301.2,125.5 241.2,125.5 241.2,31.2 299.6,31.2 299.6,39.9 250.5,39.9 
			250.5,71.9 296.4,71.9 296.4,80.6 250.5,80.6 250.5,116.8 		"/>
	</g>
	<g>
		<polygon class="st0" points="374.2,111.3 374.2,111.3 405.5,31.2 415.8,31.2 379,125.5 369.3,125.5 333.5,31.2 344.2,31.2 		"/>
	</g>
	<g>
		<polygon class="st0" points="464.6,116.8 514.9,116.8 514.9,125.5 454.9,125.5 454.9,31.2 513.3,31.2 513.3,39.9 464.2,39.9 
			464.2,71.9 510.1,71.9 510.1,80.6 464.2,80.6 464.2,116.8 		"/>
	</g>
	<g>
		<polygon class="st0" points="633.7,116.8 677.6,116.8 677.6,125.5 624,125.5 624,31.2 633.7,31.2 		"/>
	</g>
	<g>
		<path class="st0" d="M784.8,90.3c0,3.9-0.3,8.1-1.3,12.6c-1,4.5-2.6,8.4-5.2,12.3c-2.6,3.9-6.1,6.8-10.7,9.4
			c-4.5,2.6-10.3,3.6-17.1,3.6c-7.1,0-12.9-1.3-17.4-3.6c-4.5-2.6-8.1-5.5-10.7-9.4c-2.6-3.9-4.2-7.7-5.2-12.3s-1.3-8.4-1.3-12.6
			V31.2h9.7v58.1c0,4.5,0.3,8.4,1.3,11.6c1,3.2,1.9,6.1,3.6,8.1c1.6,2.3,3.2,3.9,4.8,5.2c1.9,1.3,3.6,2.3,5.5,2.9
			c1.9,0.6,3.6,1.3,5.2,1.3c1.6,0.3,3.2,0.3,4.5,0.3c1.3,0,2.6,0,4.2-0.3c1.6-0.3,3.6-0.6,5.5-1.3c1.9-0.6,3.6-1.6,5.5-2.9
			c1.9-1.3,3.6-2.9,4.8-5.2c1.6-2.3,2.6-4.8,3.6-8.1c1-3.2,1.3-7.1,1.3-11.6V31.2h9.7v59.1H784.8z"/>
	</g>
	<g>
		<polygon class="st0" points="864.8,69 891.3,31.2 903.2,31.2 871.3,76.1 905.8,125.8 893.2,125.8 864.5,82.9 835.5,125.8 
			823.5,125.8 858,76.1 826.1,31.2 839,31.2 		"/>
	</g>
</g>
</svg>
